<mxfile host="app.diagrams.net" modified="2023-11-22T18:57:11.895Z" agent="Mozilla/5.0 (Macintosh; Intel Mac OS X 10.15; rv:120.0) Gecko/20100101 Firefox/120.0" version="22.1.3" etag="PBy9XThxxoy5fvhukJmH" type="github">
  <diagram name="Page-1" id="HNhnInnhtM8kbqI-g-iM">
    <mxGraphModel>
      <root>
        <mxCell id="0" />
        <mxCell id="1" parent="0" />
      </root>
    </mxGraphModel>
  </diagram>
</mxfile>
